Coordinates
version=1
nRows=14
nColumns=36
inDegrees=yes

Units are S.I. units (second, meters, Newtons, ...)
If the header above contains a line with 'inDegrees', this indicates whether rotational values are in degrees (yes) or radians (no).

endheader
time	pelvis_tilt	pelvis_list	pelvis_rotation	pelvis_tx	pelvis_ty	pelvis_tz	hip_flexion_r	hip_adduction_r	hip_rotation_r	knee_angle_r	knee_angle_r_beta	ankle_angle_r	subtalar_angle_r	mtp_angle_r	hip_flexion_l	hip_adduction_l	hip_rotation_l	knee_angle_l	knee_angle_l_beta	ankle_angle_l	subtalar_angle_l	mtp_angle_l	lumbar_extension	lumbar_bending	lumbar_rotation	arm_flex_r	arm_add_r	arm_rot_r	elbow_flex_r	pro_sup_r	arm_flex_l	arm_add_l	arm_rot_l	elbow_flex_l	pro_sup_l
      9.76000000	    -17.50510248	     -1.82911387	     -0.83400735	     -0.22022380	      0.92887658	     -0.70814895	     32.17227686	    -10.49381990	     -7.52798887	     20.82471321	      0.36345981	      8.55241479	      8.34234695	     -7.49999987	     33.28365855	    -14.13144616	     -8.73323833	     22.00905108	      0.38413041	      7.61613942	      7.45887176	     -7.49999987	    -11.05018974	      1.32666077	      1.80708387	     36.88392064	    -27.63848397	      8.71395906	    113.91431276	    101.65553100	     36.39744100	    -24.14287488	      8.64254352	    113.21115602	    105.82940404
      9.77000000	    -17.11597144	     -1.88687161	     -0.90216736	     -0.21755412	      0.93176518	     -0.70796490	     30.86907292	    -10.20010883	     -7.37019198	     19.42886505	      0.33909767	      7.96873452	      8.29372663	     -7.49999987	     32.03881407	    -14.09976221	     -8.98313466	     20.83173980	      0.36358245	      7.20952746	      7.62303131	     -7.49999987	    -10.71903685	      1.29636799	      1.81386935	     35.78769220	    -27.44073694	      8.64818830	    113.86079174	    101.76509694	     35.21115995	    -24.24421149	      8.51700958	    113.28814628	    105.86928777
      9.78000000	    -16.74294808	     -1.94969074	     -0.95541765	     -0.21494230	      0.93443959	     -0.70779512	     29.59802474	     -9.91068058	     -7.18838658	     18.06005610	      0.31520744	      7.38316071	      8.21022015	     -7.49999987	     30.86829801	    -14.06422051	     -9.19385175	     19.74361542	      0.34459110	      6.80224992	      7.79556020	     -7.49999987	    -10.38128789	      1.27422828	      1.84122489	     34.70651345	    -27.32018165	      8.60283291	    113.81369362	    101.86383596	     34.08808658	    -24.33733876	      8.41681888	    113.33735183	    105.90592647
      9.79000000	    -16.63321793	     -2.01773470	     -0.96832418	     -0.21248689	      0.93639017	     -0.70781873	     28.69670758	     -9.68198438	     -7.18295108	     16.88018053	      0.29461473	      7.19952972	      8.23995075	     -7.49999987	     30.07818927	    -14.00688581	     -9.36657956	     18.79556701	      0.32804453	      6.68231013	      7.89117481	     -7.49999987	     -9.69322786	      1.29146129	      1.82209688	     33.56628281	    -27.29729511	      8.64930041	    113.76334288	    101.89588108	     32.95962631	    -24.44652196	      8.49369844	    113.32828637	    105.92265848
      9.80000000	    -16.11587306	     -2.11103387	     -0.95828966	     -0.20999382	      0.93889824	     -0.70782883	     27.25038525	     -9.38520672	     -6.88636069	     15.49513262	      0.27044108	      6.34011163	      7.97973881	     -7.49999987	     28.77954205	    -13.95511643	     -9.42381151	     17.69445989	      0.30882658	      6.12497750	      8.07483873	     -7.49999987	     -9.59633585	      1.30989451	      1.81154042	     32.56979657	    -27.13613949	      8.42204993	    113.76309620	    101.98392726	     31.97623583	    -24.46700362	      8.34729081	    113.43080571	    105.95105986
      9.81000000	    -15.83775358	     -2.19310927	     -0.95661846	     -0.20766738	      0.94082337	     -0.70781430	     26.13364595	     -9.09124636	     -6.46757270	     14.22967350	      0.24835465	      5.64920388	      7.25484555	     -7.49999987	     27.79474748	    -13.90441779	     -9.51520736	     16.67673650	      0.29106396	      5.79469111	      8.13444422	     -7.49999987	     -9.18201623	      1.32534132	      1.77589974	     31.54586677	    -27.01496831	      8.32840365	    113.68215990	    102.51904172	     30.94684926	    -24.55527207	      8.25167276	    113.45887787	    106.28993473
      9.82000000	    -15.51431167	     -2.25302596	     -0.93260526	     -0.20537599	      0.94268417	     -0.70783352	     24.98715469	     -8.86680041	     -6.21733514	     13.00127111	      0.22691499	      5.05905298	      6.94344128	     -7.49999987	     26.77220399	    -13.83099980	     -9.62674353	     15.67551841	      0.27358941	      5.47044487	      8.24485496	     -7.49999987	     -8.84223802	      1.32216136	      1.71660625	     30.54957427	    -26.86746472	      8.24010433	    113.61567274	    102.91584588	     29.98717767	    -24.65306394	      8.17414304	    113.48851478	    106.35667355
      9.83000000	    -15.21131760	     -2.31789435	     -0.93962607	     -0.20313820	      0.94433092	     -0.70769203	     23.89918141	     -8.62304960	     -5.92120722	     11.82211076	      0.20633476	      4.59276596	      6.67414683	     -7.49999987	     25.79091327	    -13.80091694	     -9.81749025	     14.72965043	      0.25708090	      5.26075293	      8.57936753	     -7.49999987	     -8.47813587	      1.29388040	      1.74090982	     29.47087148	    -26.72218340	      8.08716224	    113.56913600	    103.10862581	     29.12802922	    -24.70891816	      8.18648206	    113.46764154	    106.11029836
      9.84000000	    -14.87453804	     -2.38100081	     -0.97662862	     -0.20091524	      0.94588752	     -0.70756025	     22.80766841	     -8.39990264	     -5.63256495	     10.69129548	      0.18659831	      4.07236185	      6.43280197	     -7.49999987	     24.78925753	    -13.78640580	    -10.11460335	     13.82771321	      0.24133912	      4.99119447	      8.69660136	     -7.49999987	     -8.18622344	      1.27209762	      1.80473292	     28.43643252	    -26.58041004	      7.89414092	    113.61596366	    102.92568995	     28.31148898	    -24.78273742	      8.21929225	    113.39694875	    106.40894179
      9.85000000	    -14.57412261	     -2.44609629	     -0.93133000	     -0.19878825	      0.94723603	     -0.70766588	     21.77657469	     -8.23692406	     -5.48596693	      9.63275920	      0.16812336	      3.64957918	      6.31619984	     -7.49999987	     23.88117197	    -13.72091637	    -10.21788703	     12.95927395	      0.22618200	      4.78311011	      8.87742979	     -7.49999987	     -7.87605980	      1.29463272	      1.73915386	     27.47759446	    -26.45366001	      7.75696194	    113.63841797	    102.93388024	     27.41191466	    -24.81832831	      8.09183514	    113.38444402	    106.58158577
      9.86000000	    -14.30345887	     -2.51486122	     -0.89990292	     -0.19669241	      0.94838289	     -0.70773558	     20.81301515	     -8.07326038	     -5.37701251	      8.63394027	      0.15069069	      3.29596097	      6.26482512	     -7.49999987	     23.03356037	    -13.67566043	    -10.31420575	     12.15286561	      0.21210752	      4.62256244	      9.03691169	     -7.49999987	     -7.54116794	      1.32377668	      1.67375252	     26.51684851	    -26.28382312	      7.58424570	    113.64881831	    102.94565002	     26.48543449	    -24.82724881	      7.90938897	    113.39454711	    106.74487452
      9.87000000	    -14.03282562	     -2.56499734	     -0.95428931	     -0.19461582	      0.94940127	     -0.70749436	     19.88238483	     -7.88517405	     -5.10500957	      7.64882255	      0.13349714	      2.92514462	      6.11830885	     -7.49999987	     22.17119714	    -13.67907053	    -10.60082990	     11.37678750	      0.19856240	      4.50551323	      9.34148123	     -7.49999987	     -7.21660750	      1.30038650	      1.72013637	     25.51189340	    -26.08918880	      7.34170987	    113.68544315	    103.07346781	     25.62643856	    -24.82479574	      7.76636337	    113.38675165	    106.76144783
      9.88000000	    -13.63253183	     -2.58463380	     -0.99877108	     -0.19249542	      0.95053401	     -0.70727263	     18.80032245	     -7.75490478	     -4.96279832	      6.63791493	      0.11585347	      2.54377729	      6.21796744	     -7.49999987	     21.11826831	    -13.61036262	    -10.69324649	     10.50625354	      0.18336872	      4.14289555	      9.22823651	     -7.49999987	     -7.08672307	      1.24495826	      1.73690574	     24.57793503	    -25.87867204	      7.27663651	    114.09126522	     98.83141108	     24.77664400	    -24.84627181	      7.82103681	    113.93750915	    101.99903298
      9.89000000	    -13.41910121	     -2.59310232	     -0.98727951	     -0.19047586	      0.95125769	     -0.70729138	     18.00033451	     -7.68763855	     -4.90447968	      5.82530256	      0.10167071	      2.42729420	      6.37597932	     -7.49999987	     20.42029277	    -13.57271506	    -11.08081373	      9.88931785	      0.17260116	      4.21183223	      9.84039347	     -7.49999987	     -6.71128674	      1.21335003	      1.70367651	     23.57536756	    -25.74043612	      7.02187689	    114.04500517	    100.07290689	     23.87493830	    -24.85206210	      7.56235305	    113.79746249	    103.39282728
